name Walk1.mot
datacolumns 19
datarows 15
range 0.80500000 0.87500000
endheader

                time	   L_ground_force_vx	   L_ground_force_vy	   L_ground_force_vz	   L_ground_force_px	   L_ground_force_py	   L_ground_force_pz	   R_ground_force_vx	   R_ground_force_vy	   R_ground_force_vz	   R_ground_force_px	   R_ground_force_py	   R_ground_force_pz	   L_ground_torque_x	   L_ground_torque_y	   L_ground_torque_z	   R_ground_torque_x	   R_ground_torque_y	   R_ground_torque_z	
          0.80500000	         -4.22738322	         63.61295675	         -2.37552601	         -0.00238796	          0.00000000	         -0.00132029	         -0.00000000	          0.00000000	          0.00000000	          0.00000000	          0.00000000	          0.00000000	          0.00000000	          0.11067977	          0.00000000	          0.00000000	          0.00000000	          0.00000000	
          0.81000000	        -10.79480252	        100.39653612	         -3.69393777	         -0.07081307	          0.00000000	         -0.00711315	         -0.00000000	          0.00000000	          0.00000000	          0.00000000	          0.00000000	          0.00000000	          0.00000000	          0.19571417	          0.00000000	          0.00000000	          0.00000000	          0.00000000	
          0.81500000	        -17.52806604	        141.16348823	         -5.32304104	         -0.13435638	          0.00000000	         -0.01255281	         -0.00000000	          0.00000000	          0.00000000	          0.00000000	          0.00000000	          0.00000000	          0.00000000	          0.28436528	          0.00000000	          0.00000000	          0.00000000	          0.00000000	
          0.82000000	        -24.18227100	        184.12050269	         -7.22406202	         -0.18963999	          0.00000000	         -0.01734805	         -0.00000000	          0.00000000	          0.00000000	          0.00000000	          0.00000000	          0.00000000	          0.00000000	          0.37206233	          0.00000000	          0.00000000	          0.00000000	          0.00000000	
          0.82500000	        -30.72319547	        227.24944693	         -9.27427530	         -0.23507587	          0.00000000	         -0.02137216	         -0.00000000	          0.00000000	          0.00000000	         -0.00000000	          0.00000000	         -0.00000000	          0.00000000	          0.45498586	          0.00000000	          0.00000000	          0.00000000	          0.00000000	
          0.83000000	        -37.29798483	        268.71868357	        -11.25349689	         -0.27038656	          0.00000000	         -0.02461643	         -0.00000000	          0.00000000	          0.00000000	         -0.00000000	          0.00000000	         -0.00000000	          0.00000000	          0.53042471	          0.00000000	          0.00000000	          0.00000000	          0.00000000	
          0.83500000	        -44.06601630	        307.11020155	        -12.89658056	         -0.29616899	          0.00000000	         -0.02714770	         -0.00000000	         -0.00000000	          0.00000000	         -0.00000000	          0.00000000	         -0.00000000	          0.00000000	          0.59517423	          0.00000000	          0.00000000	          0.00000000	          0.00000000	
          0.84000000	        -51.09034557	        341.59513287	        -13.96314167	         -0.31354205	          0.00000000	         -0.02907512	         -0.00000000	         -0.00000000	          0.00000000	         -0.00000000	          0.00000000	         -0.00000000	          0.00000000	          0.64515215	          0.00000000	          0.00000000	          0.00000000	          0.00000000	
          0.84500000	        -58.35633781	        371.97621727	        -14.27878839	         -0.32387664	          0.00000000	         -0.03051906	         -0.00000000	         -0.00000001	         -0.00000000	         -0.00000000	          0.00000000	         -0.00000000	          0.00000000	          0.67547670	          0.00000000	          0.00000000	          0.00000000	          0.00000000	
          0.85000000	        -65.85384979	        398.55211111	        -13.75106588	         -0.32860366	          0.00000000	         -0.03159339	         -0.00000000	         -0.00000002	         -0.00000000	         -0.00000000	          0.00000000	         -0.00000000	          0.00000000	          0.68173567	          0.00000000	          0.00000000	          0.00000000	          0.00000000	
          0.85500000	        -73.61130046	        421.91008217	        -12.38082482	         -0.32908930	          0.00000000	         -0.03239566	          0.00000000	         -0.00000002	         -0.00000000	         -0.00000000	          0.00000000	         -0.00000000	          0.00000000	          0.66237224	          0.00000000	          0.00000000	          0.00000000	          0.00000000	
          0.86000000	        -81.64587934	        442.76520166	        -10.26912570	         -0.32655750	          0.00000000	         -0.03300258	          0.00000000	         -0.00000003	         -0.00000000	         -0.00000000	          0.00000000	         -0.00000000	          0.00000000	          0.62089735	          0.00000000	          0.00000000	         -0.00000000	          0.00000000	
          0.86500000	        -89.89252937	        461.85181523	         -7.58502798	         -0.32204733	          0.00000000	         -0.03347008	          0.00000000	         -0.00000004	         -0.00000000	         -0.00000000	          0.00000000	         -0.00000000	          0.00000000	          0.56663519	          0.00000000	          0.00000000	         -0.00000000	          0.00000000	
          0.87000000	        -98.18562204	        479.84440386	         -4.52030482	         -0.31640746	          0.00000000	         -0.03383626	          0.00000000	         -0.00000005	         -0.00000000	         -0.00000000	          0.00000000	         -0.00000000	          0.00000000	          0.51259629	          0.00000000	          0.00000000	         -0.00000000	          0.00000000	
          0.87500000	       -106.29131468	        497.29233107	         -1.26842944	         -0.31030514	          0.00000000	         -0.03412741	          0.00000000	         -0.00000006	         -0.00000000	         -0.00000000	          0.00000000	         -0.00000000	          0.00000000	          0.47198834	          0.00000000	          0.00000000	         -0.00000000	          0.00000000	
